PathFileType  4	(X/Y/Z) C:\Users\antoi\Documents\MyRepositories\mobilecap\ResultsAnalysis
DataRate	CameraRate	NumFrames	NumMarkers	Units	OrigDataRate	OrigDataStartFrame	OrigNumFrames
100.0	100.0	7	51	mm	100.0	116	231
Frame#	Time	r_knee			r_shank_antsup			r_ankle			r_calc			r_5meta			r_toe			L_knee			L_shank_antsup			L_ankle			L_calc			L_5meta			L_toe			r_sh2			r_sh3			r_sh4			L_sh2			L_sh3			r_thigh1			r_thigh2			r_thigh3			r_thigh4			r_thigh5			L_thigh1			L_thigh2			L_thigh3			L_thigh4			r.ASIS			r.PSIS			L.ASIS			L.PSIS			C7			R_Shoulder			L_Shoulder			R_Sternum			L_Sternum			R_humerus			R_elbow_med			R_elbow_lat			R_forearm			R_wrist_radius			R_wrist_ulna			L_humerus			L_elbow_med			L_elbow_lat			L_forearm			L_wrist_radius			L_wrist_ulna			R_HJC			L_HJC			R_HJC_reg			L_HJC_reg			
		X1	Y1	Z1	X2	Y2	Z2	X3	Y3	Z3	X4	Y4	Z4	X5	Y5	Z5	X6	Y6	Z6	X7	Y7	Z7	X8	Y8	Z8	X9	Y9	Z9	X10	Y10	Z10	X11	Y11	Z11	X12	Y12	Z12	X13	Y13	Z13	X14	Y14	Z14	X15	Y15	Z15	X16	Y16	Z16	X17	Y17	Z17	X18	Y18	Z18	X19	Y19	Z19	X20	Y20	Z20	X21	Y21	Z21	X22	Y22	Z22	X23	Y23	Z23	X24	Y24	Z24	X25	Y25	Z25	X26	Y26	Z26	X27	Y27	Z27	X28	Y28	Z28	X29	Y29	Z29	X30	Y30	Z30	X31	Y31	Z31	X32	Y32	Z32	X33	Y33	Z33	X34	Y34	Z34	X35	Y35	Z35	X36	Y36	Z36	X37	Y37	Z37	X38	Y38	Z38	X39	Y39	Z39	X40	Y40	Z40	X41	Y41	Z41	X42	Y42	Z42	X43	Y43	Z43	X44	Y44	Z44	X45	Y45	Z45	X46	Y46	Z46	X47	Y47	Z47	X48	Y48	Z48	X49	Y49	Z49	X50	Y50	Z50	X51	Y51	Z51	

116	1.15000000	-18.59678	431.66920	-416.79679	-6.65443	326.06922	-433.97315	-275.99652	124.88217	-464.55725	-374.41221	82.09512	-513.05836	-186.52020	50.28863	-409.49319	-120.92789	69.87187	-470.90499	-12.73193	444.85389	-804.25970	-23.06927	365.64395	-818.61432	-249.69612	121.02158	-761.71962	-345.51061	75.64500	-703.71609	-156.28929	49.68198	-795.71893	-92.46509	71.50131	-733.72590	-87.85414	246.89203	-419.41268	-45.84214	372.11922	-390.36083	-140.82655	304.07514	-387.47127	-97.32668	415.68149	-824.82642	-156.11865	309.09530	-809.47503	-252.54591	644.26316	-419.69662	-153.29547	603.71946	-422.50807	-151.85453	541.67255	-389.14284	-294.84154	540.44217	-419.22567	-185.70551	501.91151	-409.08949	-213.95001	649.00338	-798.95166	-84.13145	594.24958	-796.00397	-255.90878	550.57118	-826.37348	-131.37481	493.25165	-823.97249	-309.70324	738.07856	-483.99431	-488.99574	751.86897	-557.01366	-305.91970	737.43720	-728.33488	-491.68843	752.69509	-664.48471	-178.77642	1238.28162	-625.94438	-126.82465	1159.93632	-461.51544	-146.60364	1153.77398	-789.28845	-94.99693	1107.56728	-595.73183	-98.59673	1103.23103	-649.89097	-174.28012	1019.02216	-385.11493	-318.82149	848.65710	-391.08414	-292.66939	875.11265	-309.35646	-207.05360	723.70514	-284.85019	-145.01714	658.57982	-288.89261	-185.76842	643.46329	-273.02759	-202.60885	1050.86540	-876.11542	-318.36057	826.98320	-851.43176	-298.24029	854.29996	-932.26050	-232.05960	811.91168	-948.06717	-98.65850	702.38956	-942.70169	-124.04118	673.28810	-958.60200	-389.53007	621.96709	-503.84027	-390.29177	627.97632	-710.71219	-365.56446	657.10297	-517.36448	-369.60383	658.33944	-678.59305	
117	1.16000000	-12.74069	425.55389	-416.50891	-3.24171	321.49489	-434.06202	-275.60622	125.02606	-464.33878	-374.37813	82.23462	-512.81823	-186.51992	50.11754	-409.29670	-120.94467	69.63479	-470.86384	-3.69592	440.83564	-802.74092	-18.01489	363.96268	-817.39345	-248.72321	121.65572	-761.79985	-345.22186	76.12312	-703.70673	-156.15918	49.76118	-795.63658	-92.02399	71.14178	-733.67981	-86.32041	244.46287	-419.12520	-41.51150	369.85543	-391.14640	-137.99777	302.63109	-385.80113	-89.92004	417.47845	-818.20610	-152.98597	312.94356	-807.51170	-249.99577	633.28310	-419.78672	-150.34886	594.11836	-422.49102	-147.94670	532.02951	-391.33662	-290.60591	528.89565	-419.99749	-181.19131	492.10841	-410.45631	-209.94062	638.47659	-798.83525	-79.00548	587.17006	-794.50419	-249.47625	538.98168	-825.86157	-123.65867	484.72058	-821.73635	-306.65440	724.52956	-484.78368	-485.83528	739.05106	-558.30924	-302.22496	722.90575	-729.32969	-488.16154	739.23822	-665.59129	-170.75030	1222.13346	-625.17551	-118.10130	1143.18144	-461.53407	-136.00542	1137.99223	-788.94010	-87.35295	1091.06368	-595.18752	-90.81585	1086.73233	-648.75968	-159.68314	1001.98397	-383.85219	-295.62005	824.90006	-387.04795	-268.36898	852.55886	-305.98622	-175.50907	704.81243	-284.11066	-111.10372	642.06033	-290.20420	-150.61110	625.63683	-272.52070	-187.63605	1035.14261	-876.96219	-298.52376	807.80242	-857.84808	-275.29698	836.41582	-938.07054	-207.66944	795.30679	-951.52422	-72.56626	688.24523	-942.80707	-96.87869	658.81381	-959.63094	-387.00409	608.77646	-504.34823	-387.30621	613.91405	-711.24494	-363.03630	643.91422	-517.88946	-366.53586	644.19565	-679.28174	
118	1.17000000	-7.08576	421.25420	-415.68017	0.42921	318.75679	-432.95988	-274.88544	125.48711	-464.43854	-374.04041	82.98159	-512.86434	-186.40665	50.11787	-409.23309	-120.71714	69.33515	-470.85318	4.57080	437.88395	-801.36010	-13.06907	362.72586	-816.03506	-247.47588	122.67943	-761.65553	-344.67664	77.09186	-703.22683	-155.89502	49.89397	-795.47286	-91.36602	70.66495	-733.56570	-83.30458	243.04767	-416.80935	-37.35670	369.01599	-391.42150	-134.35101	302.29702	-384.00173	-82.86975	419.07574	-812.77647	-149.66948	316.42222	-805.52488	-247.37521	623.60597	-420.15542	-147.65250	585.87936	-422.34680	-144.46721	524.63624	-391.29805	-286.57703	518.95443	-420.62024	-176.92292	483.75323	-410.84364	-206.94768	629.62956	-798.30994	-74.88041	581.74575	-792.46836	-243.37486	529.32072	-825.83534	-116.20855	478.48748	-820.96874	-303.56622	711.83448	-485.79678	-482.54610	727.39723	-559.40174	-298.53900	709.19881	-730.37721	-484.50002	727.14971	-666.93443	-163.07329	1207.12323	-624.55130	-110.20462	1127.99653	-461.20813	-126.83144	1123.98387	-788.27662	-79.79714	1076.03853	-594.29824	-83.28779	1071.66193	-647.83231	-145.81673	986.62896	-382.23215	-273.20495	803.29059	-384.16936	-245.34205	832.11554	-303.60847	-145.28463	688.63150	-284.11517	-78.69145	628.36573	-292.20435	-116.70689	610.78233	-272.81575	-174.37522	1021.02005	-877.36916	-280.09556	790.65304	-862.80877	-254.19018	820.30825	-942.59338	-185.35065	780.40342	-953.97946	-48.53496	675.69677	-942.34666	-71.91601	645.98921	-959.95894	-384.65667	596.59492	-504.97677	-384.56824	600.91974	-711.89257	-360.56226	631.51037	-518.77589	-363.49728	631.14014	-680.21562	
119	1.18000000	-1.95663	418.27099	-415.17091	3.79717	316.51063	-431.43177	-273.92628	126.29107	-464.72945	-373.40527	84.39725	-513.21184	-186.17960	50.24495	-409.20511	-120.24828	69.02004	-470.86998	11.07960	435.24480	-799.73411	-8.38528	361.29063	-814.21693	-246.11544	124.02566	-760.49785	-343.80966	78.56600	-701.76653	-155.53990	50.20966	-795.07544	-90.76581	70.20808	-733.22978	-80.68326	241.61110	-415.41123	-33.61697	367.39802	-391.14568	-131.45964	301.89576	-384.40441	-77.15172	418.81539	-810.07557	-145.80965	317.24807	-803.28644	-245.13195	615.49115	-420.71942	-145.21332	579.32138	-422.69353	-141.27974	518.82643	-390.59178	-282.90499	510.47003	-420.99689	-172.79715	477.07979	-410.62861	-204.59502	622.12350	-798.01253	-71.30799	577.38847	-790.66262	-238.06205	521.10951	-825.70533	-109.68945	473.39936	-820.58208	-300.55301	700.21486	-486.67286	-479.11862	716.85794	-560.45267	-294.82761	696.81794	-731.31399	-480.76915	716.29327	-668.46221	-155.68423	1193.21109	-623.92678	-103.04888	1113.94799	-461.01692	-118.92731	1111.50319	-787.18858	-72.60952	1062.22932	-593.34690	-75.97836	1057.82029	-647.16141	-132.65729	972.38688	-381.08158	-252.38964	784.05121	-382.20867	-224.16847	813.87254	-302.22077	-117.07212	675.34823	-284.64234	-48.53669	617.49896	-294.77380	-85.07186	598.75584	-273.87580	-162.63154	1008.14192	-877.24883	-263.15851	775.15612	-866.46300	-235.46867	805.87923	-945.74621	-165.63428	767.27443	-955.18263	-27.11100	664.93216	-941.37132	-49.59860	634.93243	-959.46840	-382.32752	585.50061	-505.70416	-381.71342	589.22344	-712.63054	-358.02282	620.19666	-519.58875	-360.49052	619.35214	-681.09065	
120	1.19000000	2.85433	415.97452	-414.72643	6.93996	314.17642	-430.27060	-272.80115	127.40677	-464.98268	-372.49220	86.40439	-513.77260	-185.89045	50.43930	-409.18849	-119.66797	68.68879	-470.84999	16.07774	432.31750	-797.87884	-3.74725	359.03251	-811.97628	-244.69382	125.46892	-758.59241	-342.71164	80.37589	-699.72755	-155.19461	50.69827	-794.33410	-90.25282	69.90151	-732.72814	-78.94640	240.30088	-415.67856	-30.06447	365.35691	-390.57148	-129.22407	301.43989	-385.93066	-72.18876	416.88746	-809.18798	-141.60699	315.91439	-800.97958	-243.54892	609.10225	-421.31992	-143.03577	574.45402	-423.70654	-138.00866	514.61361	-390.50684	-279.39163	503.08564	-421.32142	-168.83209	471.97803	-410.14749	-202.19329	615.39798	-797.70249	-67.89587	573.34127	-789.24293	-233.36761	513.69746	-825.23768	-104.08224	468.57256	-819.78960	-297.47169	689.88663	-487.48178	-475.64967	707.37443	-561.72184	-290.93682	686.26753	-731.99784	-477.08695	706.49026	-670.01389	-148.56033	1180.40857	-623.32889	-96.42421	1100.96551	-461.09316	-111.32903	1100.14321	-786.34994	-65.63282	1049.52235	-592.60430	-68.80124	1045.11675	-646.74444	-120.54592	959.17172	-380.87404	-233.69286	766.88993	-380.74761	-205.21427	797.79904	-301.35339	-91.57792	664.57928	-285.72193	-21.10016	609.24322	-297.71714	-56.37385	589.02917	-275.85794	-152.00422	996.33399	-876.89234	-247.97837	761.26963	-868.92203	-219.30189	793.04702	-947.67216	-148.62543	755.79279	-955.41298	-8.46279	655.93922	-939.86042	-30.00250	625.60382	-958.36675	-379.68661	575.55518	-506.62101	-378.36676	579.03409	-713.54797	-355.19337	610.42643	-520.25768	-357.33538	609.10793	-681.69410	
121	1.20000000	7.31787	413.82334	-413.83546	10.19968	311.95700	-429.80333	-271.49156	128.85155	-464.99121	-371.32007	89.03173	-514.40007	-185.57155	50.67433	-409.25564	-119.02240	68.34311	-470.70263	20.49351	429.06438	-795.73730	1.03720	356.12432	-809.03638	-243.32435	126.77448	-756.85029	-341.64853	82.20062	-697.95712	-154.90062	51.22174	-793.36413	-89.66427	69.79018	-732.12531	-76.63638	239.09665	-415.86603	-26.32211	363.52566	-389.78633	-126.08241	300.82523	-386.18523	-67.22078	414.39791	-808.57390	-137.17433	313.90941	-798.98269	-242.25258	604.05308	-422.24968	-141.08438	570.89132	-424.88332	-134.88392	511.76043	-390.88788	-275.92095	496.84103	-421.56324	-165.10790	468.19632	-409.46355	-199.38615	609.17627	-797.13102	-64.53985	569.15655	-788.00255	-228.92651	506.81529	-824.62567	-99.02507	463.76505	-818.40565	-294.14750	680.99915	-488.60097	-472.26401	698.95367	-563.28775	-286.82427	677.72273	-732.40672	-473.46445	697.84372	-671.43643	-141.63813	1168.86728	-622.79726	-90.20191	1089.03520	-461.17954	-103.62853	1089.55474	-785.82958	-58.75599	1037.88800	-592.12227	-61.78402	1033.57490	-646.51882	-109.75778	947.12664	-381.45047	-216.97441	751.55578	-379.96301	-188.47152	783.57547	-300.86907	-69.12149	655.51269	-287.52748	3.50512	603.18573	-300.98786	-30.58218	581.18490	-278.76938	-142.35402	985.65061	-876.72744	-234.61302	749.10458	-870.03508	-205.51792	781.65545	-948.63352	-134.06584	745.63691	-955.12490	7.61953	648.35457	-937.80199	-12.97053	617.71409	-956.79641	-376.55667	566.84214	-507.82725	-374.49219	570.48363	-714.74539	-351.97747	602.32093	-521.22136	-353.76534	600.66883	-682.20183	
122	1.21000000	11.40504	412.06823	-412.70515	13.60723	310.39244	-429.66508	-269.94207	130.62489	-464.81998	-369.96781	92.27581	-515.04088	-185.15552	50.97380	-409.39203	-118.22589	68.02232	-470.45517	25.22415	425.91893	-793.41588	5.64063	353.34671	-805.89163	-242.20632	127.74623	-755.88618	-340.90357	83.62124	-696.95582	-154.65709	51.59910	-792.62948	-89.07110	69.71855	-731.53806	-73.20753	237.95306	-415.24630	-22.38054	361.69937	-388.98901	-121.78544	300.15688	-385.23203	-62.29274	412.25652	-807.53382	-132.87190	312.14863	-797.47361	-240.74122	599.84755	-423.54631	-139.12860	568.05965	-425.72985	-132.01372	509.60680	-391.05349	-272.68283	492.05128	-421.11624	-161.58049	465.22689	-408.90116	-196.19556	603.56424	-796.54187	-61.06697	565.01660	-786.69661	-224.52725	500.68007	-824.03664	-94.26683	459.10724	-816.66029	-290.62405	673.74627	-489.79693	-468.92947	691.75494	-564.98741	-282.68964	670.80725	-732.86046	-469.87384	690.58061	-672.62060	-134.78070	1158.84345	-622.21495	-84.24144	1078.09545	-461.17884	-96.12991	1079.72522	-785.25611	-52.04363	1027.46236	-591.89559	-55.01829	1023.26656	-646.32877	-100.17935	936.18457	-382.36727	-202.02429	738.00089	-380.00245	-173.73586	770.86792	-300.92322	-49.41723	647.75704	-289.87316	25.42141	598.82368	-304.69121	-7.40056	575.09331	-282.24215	-133.73262	976.09078	-876.69556	-222.69685	738.50393	-870.10019	-193.81222	771.34032	-948.62686	-121.60685	736.55831	-954.42710	21.50138	641.78911	-935.38320	1.70970	610.88779	-954.65852	-373.09911	559.58931	-509.06136	-370.42190	563.42947	-715.96936	-348.45335	595.54152	-522.38091	-349.86209	593.78992	-682.88397	
